<svg xmlns="http://www.w3.org/2000/svg" viewBox="0 0 32 32">
  <!-- Pixel flame favicon -->
  <!-- Base flame (red) -->
  <rect x="14" y="2" width="4" height="2" fill="#E94560"/>
  <rect x="12" y="4" width="8" height="2" fill="#E94560"/>
  <rect x="10" y="6" width="12" height="2" fill="#E94560"/>
  <rect x="8" y="8" width="16" height="2" fill="#E94560"/>
  <rect x="8" y="10" width="16" height="2" fill="#E94560"/>
  <rect x="8" y="12" width="16" height="2" fill="#E94560"/>
  <rect x="6" y="14" width="20" height="2" fill="#E94560"/>
  <rect x="6" y="16" width="20" height="2" fill="#E94560"/>
  <rect x="8" y="18" width="16" height="2" fill="#E94560"/>
  <rect x="8" y="20" width="16" height="2" fill="#E94560"/>
  <rect x="10" y="22" width="12" height="2" fill="#E94560"/>
  <rect x="10" y="24" width="12" height="2" fill="#E94560"/>
  <rect x="12" y="26" width="8" height="2" fill="#E94560"/>
  <rect x="14" y="28" width="4" height="2" fill="#E94560"/>
  <!-- Inner flame (gold) -->
  <rect x="14" y="10" width="4" height="2" fill="#FFD460"/>
  <rect x="12" y="12" width="8" height="2" fill="#FFD460"/>
  <rect x="12" y="14" width="8" height="2" fill="#FFD460"/>
  <rect x="12" y="16" width="8" height="2" fill="#FFD460"/>
  <rect x="14" y="18" width="4" height="2" fill="#FFD460"/>
  <rect x="14" y="20" width="4" height="2" fill="#FFD460"/>
  <rect x="14" y="22" width="4" height="2" fill="#FFD460"/>
</svg>